# xmcd
#
# Track frame offsets:
#	150
#	13338
#	25602
#	39373
#	50885
#	63015
#	80553
#	93943
#	106711
#	120070
#	131978
#	145459
#	157301
#	169884
#	181421
#	193222
#	206585
#	216747
#	230042
#	243130
#
# Disc length: 3422 seconds
# Revision: 0
# Processed by: cddbd v1.5.2PL0 Copyright (c) Steve Scherf et al.
# Submitted via: dBpowerAMP V12.0
#
DISCID=230d5c14
DTITLE=Howlin' Wolf - The Best Of Howlin' Wolf 1951 - 1958
DYEAR=2009
DGENRE=Genre: Blues;Chicago Blues;Electric Chicago Blues
TTITLE0=Moanin' At Midnight
TTITLE1=How Many More Years
TTITLE2=Riding In The Moonlight
TTITLE3=Morning At Midnight
TTITLE4=Passing By Blues
TTITLE5=Crying At Daybreak
TTITLE6=My Baby Stole Off
TTITLE7=I Want Your Picture
TTITLE8=The Wolf Is At Your Door
TTITLE9=Howlin' Wolf Boogie
TTITLE10=Worried All The Time
TTITLE11=Getting Old And Grey
TTITLE12=Mr. Highway Man
TTITLE13=Saddle My Pony
TTITLE14=Oh Red!
TTITLE15=My Last Affair
TTITLE16=All Night Boogie
TTITLE17=I Love My Baby
TTITLE18=No Place To Go
TTITLE19=Rockin' Daddy
EXTD=
EXTT0=
EXTT1=
EXTT2=
EXTT3=
EXTT4=
EXTT5=
EXTT6=
EXTT7=
EXTT8=
EXTT9=
EXTT10=
EXTT11=
EXTT12=
EXTT13=
EXTT14=
EXTT15=
EXTT16=
EXTT17=
EXTT18=
EXTT19=
PLAYORDER=
